<?xml version="1.0" standalone="no"?>
<!DOCTYPE svg PUBLIC "-//W3C//DTD SVG 20010904//EN"
 "http://www.w3.org/TR/2001/REC-SVG-20010904/DTD/svg10.dtd">
<svg version="1.0" xmlns="http://www.w3.org/2000/svg"
 width="260.000000pt" height="260.000000pt" viewBox="0 0 260.000000 260.000000"
 preserveAspectRatio="xMidYMid meet">
<metadata>
Created by potrace 1.14, written by Peter Selinger 2001-2017
</metadata>
<g transform="translate(0.000000,260.000000) scale(0.100000,-0.100000)"
fill="#000000" stroke="none">
<path d="M1085 2586 c-198 -38 -417 -131 -560 -238 -89 -67 -206 -184 -273
-273 -81 -109 -177 -309 -214 -450 -31 -116 -32 -126 -32 -325 0 -198 2 -209
32 -325 125 -471 489 -826 972 -946 83 -20 119 -23 290 -23 171 0 207 3 290
23 483 120 846 474 972 946 31 117 32 126 32 325 0 198 -2 209 -32 325 -37
141 -132 341 -214 450 -67 89 -184 206 -273 273 -110 83 -309 177 -450 213
-107 28 -138 32 -295 35 -118 2 -198 -1 -245 -10z m531 -542 c21 -20 25 -32
21 -62 -2 -20 -122 -345 -266 -722 -273 -712 -281 -730 -337 -730 -33 0 -74
42 -74 76 0 27 524 1409 543 1433 30 36 80 39 113 5z m-688 -357 c23 -19 32
-54 21 -85 -7 -22 -53 -55 -221 -159 -117 -72 -214 -135 -215 -139 -2 -5 92
-67 207 -138 116 -71 215 -137 220 -147 16 -30 11 -78 -10 -99 -39 -39 -67
-28 -313 125 -253 157 -267 170 -267 256 0 86 20 106 252 250 117 73 224 139
238 146 26 14 65 10 88 -10z m1056 -125 c121 -75 228 -149 238 -163 41 -54 41
-144 1 -198 -11 -13 -118 -87 -239 -163 -177 -111 -226 -137 -256 -138 -56 0
-93 58 -72 114 3 9 102 75 220 147 118 72 216 135 219 139 2 4 -91 65 -206
136 -116 71 -217 138 -225 149 -20 28 -17 58 7 89 40 51 70 41 313 -112z"/>
</g>
</svg>
